<mxfile host="app.diagrams.net" agent="Mozilla/5.0 (X11; Ubuntu; Linux x86_64; rv:142.0) Gecko/20100101 Firefox/142.0" version="28.1.1">
  <diagram name="Page-1" id="e7kKIoJKGaCOnIqf6b-l">
    <mxGraphModel dx="1426" dy="826" grid="1" gridSize="10" guides="1" tooltips="1" connect="1" arrows="1" fold="1" page="1" pageScale="1" pageWidth="827" pageHeight="1169" math="0" shadow="0">
      <root>
        <mxCell id="0" />
        <mxCell id="1" parent="0" />
        <mxCell id="UU5J9lZiVwGgyVD7B0Z8-1" value="" style="rounded=0;whiteSpace=wrap;html=1;" vertex="1" parent="1">
          <mxGeometry x="120" y="160" width="410" height="420" as="geometry" />
        </mxCell>
        <mxCell id="UU5J9lZiVwGgyVD7B0Z8-2" value="Account replic management" style="text;html=1;align=center;verticalAlign=middle;whiteSpace=wrap;rounded=0;" vertex="1" parent="1">
          <mxGeometry x="120" y="160" width="170" height="30" as="geometry" />
        </mxCell>
        <mxCell id="UU5J9lZiVwGgyVD7B0Z8-3" value="Browse own replics" style="ellipse;whiteSpace=wrap;html=1;" vertex="1" parent="1">
          <mxGeometry x="314" y="340" width="100" height="60" as="geometry" />
        </mxCell>
        <mxCell id="UU5J9lZiVwGgyVD7B0Z8-7" style="rounded=0;orthogonalLoop=1;jettySize=auto;html=1;endArrow=none;endFill=0;" edge="1" parent="1" source="UU5J9lZiVwGgyVD7B0Z8-4" target="UU5J9lZiVwGgyVD7B0Z8-3">
          <mxGeometry relative="1" as="geometry" />
        </mxCell>
        <mxCell id="UU5J9lZiVwGgyVD7B0Z8-4" value="User" style="shape=umlActor;verticalLabelPosition=bottom;verticalAlign=top;html=1;" vertex="1" parent="1">
          <mxGeometry x="640" y="300" width="30" height="60" as="geometry" />
        </mxCell>
        <mxCell id="UU5J9lZiVwGgyVD7B0Z8-18" value="&amp;lt;&amp;lt;extend&amp;gt;&amp;gt;" style="rounded=0;orthogonalLoop=1;jettySize=auto;html=1;dashed=1;dashPattern=8 8;endArrow=open;endFill=0;" edge="1" parent="1" source="UU5J9lZiVwGgyVD7B0Z8-8" target="UU5J9lZiVwGgyVD7B0Z8-3">
          <mxGeometry relative="1" as="geometry" />
        </mxCell>
        <mxCell id="UU5J9lZiVwGgyVD7B0Z8-8" value="Deactivate a replic" style="ellipse;whiteSpace=wrap;html=1;" vertex="1" parent="1">
          <mxGeometry x="210" y="220" width="90" height="60" as="geometry" />
        </mxCell>
        <mxCell id="UU5J9lZiVwGgyVD7B0Z8-17" value="&amp;lt;&amp;lt;extend&amp;gt;&amp;gt;" style="rounded=0;orthogonalLoop=1;jettySize=auto;html=1;dashed=1;dashPattern=8 8;endArrow=open;endFill=0;" edge="1" parent="1" source="UU5J9lZiVwGgyVD7B0Z8-9" target="UU5J9lZiVwGgyVD7B0Z8-3">
          <mxGeometry relative="1" as="geometry" />
        </mxCell>
        <mxCell id="UU5J9lZiVwGgyVD7B0Z8-9" value="Reactivate a replic" style="ellipse;whiteSpace=wrap;html=1;" vertex="1" parent="1">
          <mxGeometry x="150" y="400" width="90" height="60" as="geometry" />
        </mxCell>
        <mxCell id="UU5J9lZiVwGgyVD7B0Z8-16" value="&amp;lt;&amp;lt;extend&amp;gt;&amp;gt;" style="rounded=0;orthogonalLoop=1;jettySize=auto;html=1;dashed=1;dashPattern=8 8;endArrow=open;endFill=0;" edge="1" parent="1" source="UU5J9lZiVwGgyVD7B0Z8-14" target="UU5J9lZiVwGgyVD7B0Z8-3">
          <mxGeometry relative="1" as="geometry" />
        </mxCell>
        <mxCell id="UU5J9lZiVwGgyVD7B0Z8-14" value="Select a replic to view it" style="ellipse;whiteSpace=wrap;html=1;" vertex="1" parent="1">
          <mxGeometry x="290" y="490" width="90" height="60" as="geometry" />
        </mxCell>
      </root>
    </mxGraphModel>
  </diagram>
</mxfile>
